<svg width="579" height="133" viewBox="0 0 579 133" fill="none" xmlns="http://www.w3.org/2000/svg">
<path d="M4.896 97V86.344L65.184 35.656H4.896V27.88H74.016V38.536L13.728 89.224H74.016V97H4.896ZM160.754 97V70.984L128.978 27.88H137.906L164.69 61.672L191.186 27.88H200.306L168.53 70.984V97H160.754ZM256.626 97V27.88H267.282L317.97 88.168V27.88H325.746V97H315.09L264.402 36.712V97H256.626ZM384.693 97V27.88H447.765V35.656H392.469V58.504H436.917V66.376H392.469V89.224H447.765V97H384.693ZM505.041 97V96.904L534.033 62.44L505.041 27.976V27.88H515.025L539.121 56.392L563.121 27.88H573.105V27.976L544.113 62.44L573.201 96.904V97H563.121L539.121 68.488L515.025 97H505.041Z" fill="white"/>
<path d="M2.928 129V117.48H12.528C12.88 117.48 13.2 117.565 13.488 117.736C13.7867 117.907 14.0213 118.141 14.192 118.44C14.3627 118.728 14.448 119.048 14.448 119.4V127.08C14.448 127.432 14.3627 127.757 14.192 128.056C14.0213 128.344 13.7867 128.573 13.488 128.744C13.2 128.915 12.88 129 12.528 129H2.928ZM4.848 127.704H12.528C12.6987 127.704 12.8427 127.645 12.96 127.528C13.088 127.4 13.152 127.251 13.152 127.08V119.4C13.152 119.229 13.088 119.085 12.96 118.968C12.8427 118.84 12.6987 118.776 12.528 118.776H4.848C4.67733 118.776 4.528 118.84 4.4 118.968C4.28267 119.085 4.224 119.229 4.224 119.4V127.08C4.224 127.251 4.28267 127.4 4.4 127.528C4.528 127.645 4.67733 127.704 4.848 127.704ZM53.8717 129V117.48H64.3837V118.776H55.1677V122.584H62.5757V123.896H55.1677V127.704H64.3837V129H53.8717ZM110.026 129L103.354 117.48H104.874L110.778 127.736L116.666 117.48H118.186L111.53 129H110.026ZM157.369 129V117.48H167.881V118.776H158.665V122.584H166.073V123.896H158.665V127.704H167.881V129H157.369ZM207.203 129V117.464H208.499V127.704H218.723V129H207.203ZM259.143 129C258.791 129 258.466 128.915 258.167 128.744C257.879 128.573 257.65 128.344 257.479 128.056C257.309 127.757 257.223 127.432 257.223 127.08V119.4C257.223 119.048 257.309 118.728 257.479 118.44C257.65 118.141 257.879 117.907 258.167 117.736C258.466 117.565 258.791 117.48 259.143 117.48H266.823C267.175 117.48 267.495 117.565 267.783 117.736C268.082 117.907 268.317 118.141 268.487 118.44C268.658 118.728 268.743 119.048 268.743 119.4V127.08C268.743 127.432 268.658 127.757 268.487 128.056C268.317 128.344 268.082 128.573 267.783 128.744C267.495 128.915 267.175 129 266.823 129H259.143ZM259.143 127.704H266.823C266.994 127.704 267.138 127.645 267.255 127.528C267.383 127.4 267.447 127.251 267.447 127.08V119.4C267.447 119.229 267.383 119.085 267.255 118.968C267.138 118.84 266.994 118.776 266.823 118.776H259.143C258.973 118.776 258.823 118.84 258.695 118.968C258.578 119.085 258.519 119.229 258.519 119.4V127.08C258.519 127.251 258.578 127.4 258.695 127.528C258.823 127.645 258.973 127.704 259.143 127.704ZM308.105 129V117.496H317.705C318.057 117.496 318.377 117.587 318.665 117.768C318.964 117.939 319.199 118.168 319.369 118.456C319.54 118.744 319.625 119.064 319.625 119.416V122.792C319.625 123.144 319.54 123.464 319.369 123.752C319.199 124.04 318.964 124.275 318.665 124.456C318.377 124.627 318.057 124.712 317.705 124.712H309.401V129H308.105ZM310.025 123.4H317.705C317.876 123.4 318.02 123.341 318.137 123.224C318.265 123.107 318.329 122.963 318.329 122.792V119.416C318.329 119.245 318.265 119.101 318.137 118.984C318.02 118.856 317.876 118.792 317.705 118.792H310.025C309.855 118.792 309.705 118.856 309.577 118.984C309.46 119.101 309.401 119.245 309.401 119.416V122.792C309.401 122.963 309.46 123.107 309.577 123.224C309.705 123.341 309.855 123.4 310.025 123.4ZM358.362 129V117.48H360.138L364.922 123.176L369.706 117.48H371.482V129H370.186V118.952L364.922 125.208L359.658 118.952V129H358.362ZM410.837 129V117.48H421.349V118.776H412.133V122.584H419.541V123.896H412.133V127.704H421.349V129H410.837ZM460.655 129V117.48H462.431L470.879 127.528V117.48H472.175V129H470.399L461.951 118.952V129H460.655ZM516.112 129V118.776H510.992V117.48H522.512V118.776H517.408V129H516.112ZM563.148 129C562.796 129 562.471 128.915 562.172 128.744C561.884 128.573 561.655 128.344 561.484 128.056C561.314 127.757 561.228 127.432 561.228 127.08V126.632H562.524V127.08C562.524 127.251 562.583 127.4 562.7 127.528C562.828 127.645 562.978 127.704 563.148 127.704H570.828C570.999 127.704 571.143 127.645 571.26 127.528C571.388 127.4 571.452 127.251 571.452 127.08V124.504C571.452 124.333 571.388 124.189 571.26 124.072C571.143 123.955 570.999 123.896 570.828 123.896H563.148C562.796 123.896 562.471 123.811 562.172 123.64C561.884 123.459 561.655 123.224 561.484 122.936C561.314 122.648 561.228 122.328 561.228 121.976V119.4C561.228 119.048 561.314 118.728 561.484 118.44C561.655 118.141 561.884 117.907 562.172 117.736C562.471 117.565 562.796 117.48 563.148 117.48H570.828C571.18 117.48 571.5 117.565 571.788 117.736C572.087 117.907 572.322 118.141 572.492 118.44C572.663 118.728 572.748 119.048 572.748 119.4V119.848H571.452V119.4C571.452 119.229 571.388 119.085 571.26 118.968C571.143 118.84 570.999 118.776 570.828 118.776H563.148C562.978 118.776 562.828 118.84 562.7 118.968C562.583 119.085 562.524 119.229 562.524 119.4V121.976C562.524 122.147 562.583 122.291 562.7 122.408C562.828 122.525 562.978 122.584 563.148 122.584H570.828C571.18 122.584 571.5 122.675 571.788 122.856C572.087 123.027 572.322 123.256 572.492 123.544C572.663 123.832 572.748 124.152 572.748 124.504V127.08C572.748 127.432 572.663 127.757 572.492 128.056C572.322 128.344 572.087 128.573 571.788 128.744C571.5 128.915 571.18 129 570.828 129H563.148Z" fill="white"/>
</svg>
